<?xml version="1.0" encoding="UTF-8" standalone="no"?>
<svg
   xmlns:dc="http://purl.org/dc/elements/1.1/"
   xmlns:cc="http://creativecommons.org/ns#"
   xmlns:rdf="http://www.w3.org/1999/02/22-rdf-syntax-ns#"
   xmlns:svg="http://www.w3.org/2000/svg"
   xmlns="http://www.w3.org/2000/svg"
   xmlns:sodipodi="http://sodipodi.sourceforge.net/DTD/sodipodi-0.dtd"
   xmlns:inkscape="http://www.inkscape.org/namespaces/inkscape"
   x="0"
   y="0"
   width="290"
   height="25"
   version="1.1"
   id="svg3432"
   inkscape:version="0.91 r13725"
   sodipodi:docname="Unknown.svg">
  <metadata
     id="metadata3488">
    <rdf:RDF>
      <cc:Work
         rdf:about="">
        <dc:format>image/svg+xml</dc:format>
        <dc:type
           rdf:resource="http://purl.org/dc/dcmitype/StillImage" />
      </cc:Work>
    </rdf:RDF>
  </metadata>
  <defs
     id="defs3486" />
  <sodipodi:namedview
     pagecolor="#ffffff"
     bordercolor="#666666"
     borderopacity="1"
     objecttolerance="10"
     gridtolerance="10"
     guidetolerance="10"
     inkscape:pageopacity="0"
     inkscape:pageshadow="2"
     inkscape:window-width="994"
     inkscape:window-height="708"
     id="namedview3484"
     showgrid="false"
     inkscape:zoom="2.2966667"
     inkscape:cx="132.58345"
     inkscape:cy="219.66618"
     inkscape:window-x="138"
     inkscape:window-y="31"
     inkscape:window-maximized="0"
     inkscape:current-layer="g3434" />
  <g
     data-paper-data="{&quot;description&quot;:&quot;Logo for unclebean's blog\n=========================\n\nThis logo was generated by MarkMaker and is composed of elements designed by others.\n\nThe font is Wallpoet designed by Lars Berggren and released under the OFL license via Google Fonts: https://www.google.com/fonts/specimen/Wallpoet. The font includes this copyright statement: Copyright (c) 2011 by Lars Berggren (punktlars@gmail.com). All rights reserved.\n\nMarkMaker uses semantic data from the Princeton University WordNet database http://wordnet.princeton.edu and font descriptions from Google Fonts https://www.google.com/fonts.\n\nThis design is inspired by designs that past users of MarkMaker have liked. As a result, it may be visually similar to past or future designs generated by the system. There is no guarantee that it is unique, original, or suitable in any way for use as a logo.\n\n&quot;}"
     fill="#656467"
     stroke="none"
     stroke-width="1"
     stroke-linecap="butt"
     stroke-linejoin="miter"
     stroke-miterlimit="10"
     stroke-dasharray=""
     stroke-dashoffset="0"
     font-family="sans-serif"
     font-weight="normal"
     font-size="12"
     text-anchor="start"
     mix-blend-mode="normal"
     id="g3434">
    <g
       data-paper-data="{&quot;elementType&quot;:&quot;logo&quot;}"
       id="g3436"
       transform="translate(-7.8374455,-135.84906)">
      <g
         data-paper-data="{&quot;elementType&quot;:&quot;text&quot;}"
         id="g3438">
        <g
           data-paper-data="{&quot;baseline&quot;:71.2,&quot;elementType&quot;:&quot;row&quot;}"
           id="g3440">
          <g
             data-paper-data="{&quot;baselineProportion&quot;:0.9985974754558206,&quot;fontSize&quot;:100,&quot;baseline&quot;:71.2,&quot;elementType&quot;:&quot;word&quot;}"
             id="g3442">
            <path
               d="m 97.95563,155.5791 -2.69782,0 0,-0.97122 -3.23739,0.97122 0,-2.26617 3.23739,0 0,-7.16542 2.69782,0 0,9.43159 m -12.86322,-1.4892 0,-7.94239 2.71941,0 0,7.16542 3.2158,0 0,2.26617 -3.49638,0 -2.43883,-1.4892 z"
               data-paper-data="{&quot;elementType&quot;:&quot;letter&quot;,&quot;baseline&quot;:43.7,&quot;baselineProportion&quot;:1,&quot;fontSize&quot;:100}"
               id="path3444"
               inkscape:connector-curvature="0" />
            <path
               d="m 102.14265,146.08276 2.74099,0 0,0.92805 3.19422,-0.92805 0,2.02876 -3.19422,0 0,7.44599 -2.74099,0 0,-9.47475 m 12.92797,1.4892 0,7.98555 -2.69782,0 0,-7.44599 -3.25897,0 0,-2.02876 3.41005,0 2.54674,1.4892 z"
               data-paper-data="{&quot;elementType&quot;:&quot;letter&quot;,&quot;baseline&quot;:44,&quot;baselineProportion&quot;:1.002277904328018,&quot;fontSize&quot;:100}"
               id="path3446"
               inkscape:connector-curvature="0" />
            <path
               d="m 118.61016,147.55038 2.46041,-1.4892 3.53954,0 0,2.02876 -3.25897,0 0,5.2014 3.17264,0 0,2.28775 -3.45321,0 -2.46041,-1.4892 0,-6.53952 m 12.94955,5.02875 -2.71941,0 0,0.71223 -3.25897,0 0,2.28775 3.51796,0 2.46041,-1.4892 0,-1.51078 z m 0,-3.51796 -2.71941,0 0,-0.97122 -3.25897,0 0,-2.02876 3.51796,0 2.46041,1.4892 0,1.51078"
               data-paper-data="{&quot;elementType&quot;:&quot;letter&quot;,&quot;baseline&quot;:44.1,&quot;baselineProportion&quot;:1,&quot;fontSize&quot;:100}"
               id="path3448"
               inkscape:connector-curvature="0" />
            <path
               d="m 133.54531,143.16911 2.76257,0 0,12.43157 -2.76257,0 0,-12.43157 z"
               data-paper-data="{&quot;elementType&quot;:&quot;letter&quot;,&quot;baseline&quot;:57.5,&quot;baselineProportion&quot;:0.998263888888889,&quot;fontSize&quot;:100}"
               id="path3450"
               inkscape:connector-curvature="0" />
            <path
               d="m 140.06325,154.0899 0,-6.51794 2.54674,-1.51078 3.43163,0 0,2.02876 -3.25897,0 0,1.76977 3.25897,0 0,1.66186 -3.25897,0 0,1.76977 3.25897,0 0,2.28775 -3.43163,0 -2.54674,-1.4892 z m 13.03587,-4.05753 -2.54674,1.4892 -3.45321,0 0,-1.66186 3.25897,0 0,-1.76977 -3.25897,0 0,-2.02876 3.45321,0 2.54674,1.51078 0,2.46041 m 0,2.54675 0,1.51078 -2.54674,1.4892 -3.45321,0 0,-2.28775 3.17264,0 0,-0.71223 2.82732,0"
               data-paper-data="{&quot;elementType&quot;:&quot;letter&quot;,&quot;baseline&quot;:44.1,&quot;baselineProportion&quot;:1,&quot;fontSize&quot;:100}"
               id="path3452"
               inkscape:connector-curvature="0" />
            <path
               d="m 155.08472,143.14753 2.71941,0 0,2.9784 3.23739,0 0,2.00718 -3.23739,0 0,5.17982 3.15106,0 0,2.26617 -5.87046,0 0,-12.43157 m 12.86321,4.46759 0,6.47477 -2.46041,1.4892 -3.41005,0 0,-2.26617 3.23739,0 0,-5.17982 -3.32372,0 0,-2.00718 3.49638,0 2.46041,1.4892 z"
               data-paper-data="{&quot;elementType&quot;:&quot;letter&quot;,&quot;baseline&quot;:57.6,&quot;baselineProportion&quot;:1,&quot;fontSize&quot;:100}"
               id="path3454"
               inkscape:connector-curvature="0" />
            <path
               d="m 171.27166,154.0899 0,-6.51794 2.54674,-1.51078 3.43163,0 0,2.02876 -3.25897,0 0,1.76977 3.25897,0 0,1.66186 -3.25897,0 0,1.76977 3.25897,0 0,2.28775 -3.43163,0 -2.54674,-1.4892 z m 13.03587,-4.05753 -2.54674,1.4892 -3.45321,0 0,-1.66186 3.25897,0 0,-1.76977 -3.25897,0 0,-2.02876 3.45321,0 2.54674,1.51078 0,2.46041 m 0,2.54675 0,1.51078 -2.54674,1.4892 -3.45321,0 0,-2.28775 3.17264,0 0,-0.71223 2.82732,0"
               data-paper-data="{&quot;elementType&quot;:&quot;letter&quot;,&quot;baseline&quot;:44.1,&quot;baselineProportion&quot;:1,&quot;fontSize&quot;:100}"
               id="path3456"
               inkscape:connector-curvature="0" />
            <path
               d="m 200.5808,147.59354 0,8.00714 -5.91363,0 0,-2.28775 3.17264,0 0,-1.76977 -3.25897,0 0,-1.66186 3.25897,0 0,-1.76977 -3.25897,0 0,-2.02876 3.53954,0 2.46041,1.51078 z m -12.94955,3.77695 2.46041,-1.4892 3.53954,0 0,1.66186 -3.25897,0 0,1.76977 3.25897,0 0,2.28775 -3.53954,0 -2.46041,-1.4892 0,-2.74099 m 0,-2.28774 0,-1.4892 2.46041,-1.51078 3.53954,0 0,2.02876 -3.25897,0 0,0.97122 -2.74099,0"
               data-paper-data="{&quot;elementType&quot;:&quot;letter&quot;,&quot;baseline&quot;:44,&quot;baselineProportion&quot;:0.9977324263038551,&quot;fontSize&quot;:100}"
               id="path3458"
               inkscape:connector-curvature="0" />
            <path
               d="m 204.55199,146.08276 2.74099,0 0,0.92805 3.19422,-0.92805 0,2.02876 -3.19422,0 0,7.44599 -2.74099,0 0,-9.47475 m 12.92797,1.4892 0,7.98555 -2.69782,0 0,-7.44599 -3.25897,0 0,-2.02876 3.41005,0 2.54674,1.4892 z"
               data-paper-data="{&quot;elementType&quot;:&quot;letter&quot;,&quot;baseline&quot;:44,&quot;baselineProportion&quot;:1.002277904328018,&quot;fontSize&quot;:100}"
               id="path3460"
               inkscape:connector-curvature="0" />
            <path
               d="m 221.0195,140.2123 1.81294,0 0,3.41005 -1.81294,0.0432 0,-3.45321 z"
               data-paper-data="{&quot;elementType&quot;:&quot;letter&quot;,&quot;baseline&quot;:71.2,&quot;baselineProportion&quot;:4.45,&quot;fontSize&quot;:100}"
               id="path3462"
               inkscape:connector-curvature="0" />
            <path
               d="m 239.01937,154.0899 -2.46041,1.4892 -3.4748,0 0,-2.26617 3.32372,0 0,-1.74819 -3.25897,0 0,-1.68344 3.41005,0 2.46041,1.51078 0,2.69782 m -12.86321,-6.45319 2.46041,-1.4892 3.49638,0 0,2.00718 -3.23739,0 0,1.72661 3.23739,0 0,1.68344 -3.49638,0 -2.46041,-1.4892 0,-2.43883 m 2.7194,4.94241 0,0.73381 3.23739,0 0,2.26617 -3.49638,0 -2.46041,-1.4892 0,-1.51078 2.71941,0 m 7.44598,-3.49638 0,-0.92805 -3.23739,0 0,-2.00718 3.4748,0 2.46041,1.4892 0,1.44603 -2.69782,0 z"
               data-paper-data="{&quot;elementType&quot;:&quot;letter&quot;,&quot;baseline&quot;:43.7,&quot;baselineProportion&quot;:1,&quot;fontSize&quot;:100}"
               id="path3464"
               inkscape:connector-curvature="0" />
          </g>
          <g
             data-paper-data="{&quot;baselineProportion&quot;:0.7470817120622569,&quot;fontSize&quot;:100,&quot;baseline&quot;:57.6,&quot;elementType&quot;:&quot;word&quot;}"
             id="g3466">
            <path
               d="m 246.73415,143.14753 2.71941,0 0,2.9784 3.23739,0 0,2.00718 -3.23739,0 0,5.17982 3.15106,0 0,2.26617 -5.87046,0 0,-12.43157 m 12.86321,4.46759 0,6.47477 -2.46041,1.4892 -3.41005,0 0,-2.26617 3.23739,0 0,-5.17982 -3.32372,0 0,-2.00718 3.49638,0 2.46041,1.4892 z"
               data-paper-data="{&quot;elementType&quot;:&quot;letter&quot;,&quot;baseline&quot;:57.6,&quot;baselineProportion&quot;:1,&quot;fontSize&quot;:100}"
               id="path3468"
               inkscape:connector-curvature="0" />
            <path
               d="m 261.58297,143.16911 2.76257,0 0,12.43157 -2.76257,0 0,-12.43157 z"
               data-paper-data="{&quot;elementType&quot;:&quot;letter&quot;,&quot;baseline&quot;:57.5,&quot;baselineProportion&quot;:0.998263888888889,&quot;fontSize&quot;:100}"
               id="path3470"
               inkscape:connector-curvature="0" />
            <path
               d="m 279.04327,147.57196 0,6.49636 -2.52516,1.4892 -3.43163,0 0,-2.30934 3.25897,0 0,-5.13665 -3.25897,0 0,-2.02876 3.43163,0 2.52516,1.4892 z m -12.66897,0 2.52516,-1.4892 3.41005,0 0,2.02876 -3.23739,0 0,5.13665 3.23739,0 0,2.30934 -3.41005,0 -2.52516,-1.4892 0,-6.49636"
               data-paper-data="{&quot;elementType&quot;:&quot;letter&quot;,&quot;baseline&quot;:44,&quot;baselineProportion&quot;:1.002277904328018,&quot;fontSize&quot;:100}"
               id="path3472"
               inkscape:connector-curvature="0" />
            <path
               d="m 294,146.08276 0,12.21574 -2.52516,1.4892 -3.43163,0 0,-2.26617 3.2158,0 0,-3.15106 -3.2158,0 0,-1.74819 3.2158,0 0,-4.46759 -3.2158,0 0,-2.07193 5.95679,0 z m -12.97113,1.4892 2.52516,-1.4892 3.41005,0 0,2.07193 -3.19422,0 0,4.46759 3.19422,0 0,1.74819 -3.41005,0 -2.52516,-1.51078 0,-5.28773 m 0,8.97835 2.78415,0 0,0.97122 3.15106,0 0,2.26617 -3.41005,0 -2.52516,-1.4892 0,-1.74819"
               data-paper-data="{&quot;elementType&quot;:&quot;letter&quot;,&quot;baseline&quot;:44,&quot;baselineProportion&quot;:0.6929133858267716,&quot;fontSize&quot;:100}"
               id="path3474"
               inkscape:connector-curvature="0" />
          </g>
        </g>
      </g>
    </g>
    <g
       data-paper-data="{&quot;elementType&quot;:&quot;emblem&quot;}"
       id="g3476"
       transform="translate(-0.43541364,-135.84906)">
      <g
         data-paper-data="{&quot;baselineProportion&quot;:1,&quot;fontSize&quot;:100,&quot;baseline&quot;:57.5,&quot;elementType&quot;:&quot;word&quot;}"
         id="g3478">
        <path
           d="m 34.14772,138.25476 0,0 0,20.71248 -4.61639,2.778 -8.45657,0 0,-4.7798 7.92548,0 0,-18.71068 5.14748,0 z m -28.14772,0 5.14748,0 0,18.71068 7.92548,0 0,4.7798 -8.41572,0 -4.65724,-2.778 0,-20.71248 0,0"
           data-paper-data="{&quot;elementType&quot;:&quot;letter&quot;,&quot;baseline&quot;:57.5,&quot;baselineProportion&quot;:1,&quot;fontSize&quot;:100}"
           id="path3480"
           inkscape:connector-curvature="0" />
        <path
           d="m 41.25615,138.25476 13.07296,0 0,4.61639 -7.92548,0 0,4.82065 7.92548,0 0,4.65724 -7.92548,0 0,4.61639 7.92548,0 0,4.7798 -13.07296,0 0,-23.49048 m 28.14772,20.71249 -4.61639,2.778 -8.45657,0 0,-4.7798 7.92548,0 0,-4.61639 -7.92548,0 0,-4.65724 7.92548,0 0,-4.82065 -7.92548,0 0,-4.61639 8.45657,0 4.61639,2.81886 0,7.10842 -3.84018,1.83839 3.84018,1.79753 0,7.14928 z"
           data-paper-data="{&quot;elementType&quot;:&quot;letter&quot;,&quot;baseline&quot;:57.5,&quot;baselineProportion&quot;:1,&quot;fontSize&quot;:100}"
           id="path3482"
           inkscape:connector-curvature="0" />
      </g>
    </g>
  </g>
</svg>
